# xmcd CD database file
#
# Track frame offsets:
#	150
#	28113
#	48506
#	78822
#	101715
#	125969
#	138666
#	162699
#	184838
#	203007
#	220658
#
# Disc length: 3197 seconds
#
# Revision: 0
# Processed by: cddbd v1.4PL0 Copyright (c) Steve Scherf et al.
# Submitted via: CDex 1.50Beta7
#
DISCID=a30c7b0b
DTITLE=Sade - Promise
DYEAR=1900
DGENRE=Blues
TTITLE0=Is it a crime
TTITLE1=The sweetest taboo
TTITLE2=War of the hearts
TTITLE3=You' re not the man
TTITLE4=Jezebel
TTITLE5=Mr. wrong
TTITLE6=Punch drunk
TTITLE7=Never as good as the first time
TTITLE8=Fear
TTITLE9=Tar baby
TTITLE10=Maureen
EXTD=
EXTT0=
EXTT1=
EXTT2=
EXTT3=
EXTT4=
EXTT5=
EXTT6=
EXTT7=
EXTT8=
EXTT9=
EXTT10=
PLAYORDER=
